# xmcd
#
# Track frame offsets:
#	150
#	16977
#	53135
#	102075
#	184262
#	224992
#
# Disc length: 4544 seconds
#
# Revision: 1
# Processed by: cddbd v1.5.1PL0 Copyright (c) Steve Scherf et al.
# Submitted via: audiograbber 1.83.01
#
DISCID=5411be06
DTITLE=Albert Collins - "Jammin' With Albert"
DYEAR=1900
DGENRE=
TTITLE0=Good Golly Miss Molly
TTITLE1=I Got A Cold Cold Feeling
TTITLE2=Goin' Down Slow Jam
TTITLE3=Whiskey And Women Jam
TTITLE4=Boogie Jam
TTITLE5=Funk Jam
EXTD=
EXTT0=
EXTT1=
EXTT2=
EXTT3=
EXTT4=
EXTT5=
PLAYORDER=
